<?xml version="1.0" standalone="no"?>
<!DOCTYPE svg PUBLIC "-//W3C//DTD SVG 20010904//EN"
 "http://www.w3.org/TR/2001/REC-SVG-20010904/DTD/svg10.dtd">
<svg version="1.0" xmlns="http://www.w3.org/2000/svg"
 width="300.000000pt" height="300.000000pt" viewBox="0 0 300.000000 300.000000"
 preserveAspectRatio="xMidYMid meet">
<metadata>
Created by potrace 1.10, written by Peter Selinger 2001-2011
</metadata>
<g transform="translate(0.000000,300.000000) scale(0.100000,-0.100000)"
fill="#000000" stroke="none">
<path d="M1489 2873 c-7 -21 -34 -83 -61 -137 -60 -124 -64 -174 -18 -253 36
-63 59 -81 28 -22 -15 29 -23 64 -25 106 -1 55 3 72 43 154 39 79 46 89 60 78
28 -23 75 -130 85 -191 9 -52 7 -65 -15 -121 -22 -55 -23 -59 -5 -37 39 49 53
85 53 141 1 49 -7 70 -66 187 l-66 133 -13 -38z"/>
<path d="M1487 2573 c-21 -75 -21 -112 0 -164 16 -41 16 -41 29 -18 30 52 34
93 19 153 -24 92 -30 95 -48 29z m20 -23 c-3 -13 0 -20 9 -20 9 0 13 -11 12
-35 -1 -32 -17 -51 -19 -22 0 6 -4 3 -9 -8 -7 -16 -9 -11 -9 20 -1 42 8 85 16
85 3 0 3 -9 0 -20z"/>
<path d="M1255 2528 c-77 -83 -125 -161 -125 -203 0 -51 52 -127 177 -258 70
-74 129 -134 130 -133 4 4 -46 97 -51 96 -3 0 -10 0 -16 0 -5 0 -18 17 -29 38
-16 32 -24 61 -45 167 -2 11 -4 -1 -5 -26 0 -26 6 -66 14 -89 8 -24 13 -45 11
-47 -2 -3 -17 15 -34 39 -16 24 -39 52 -51 62 -13 12 -21 31 -21 50 0 21 -3
27 -9 17 -6 -10 -13 -5 -25 19 -34 68 -9 134 84 225 58 55 61 57 67 35 3 -12
17 -43 30 -67 12 -24 23 -52 23 -61 0 -15 2 -15 10 -2 9 13 11 13 20 0 5 -8
10 -25 10 -37 0 -13 5 -23 10 -23 17 0 11 24 -18 71 -35 55 -62 122 -71 174
l-6 40 -80 -87z"/>
<path d="M1670 2587 c0 -47 -27 -122 -67 -189 -30 -49 -34 -61 -25 -85 l10
-28 1 31 c1 16 10 40 21 52 23 25 80 139 81 162 0 10 5 8 16 -7 8 -13 20 -23
25 -23 11 0 67 -63 95 -109 12 -20 23 -50 23 -68 0 -34 -18 -83 -31 -83 -4 0
-10 -12 -14 -27 -3 -15 -23 -47 -43 -72 -67 -82 -66 -87 3 -16 71 73 115 149
115 199 0 50 -38 112 -126 206 -84 89 -84 90 -84 57z"/>
<path d="M1065 2390 c-65 -80 -103 -169 -112 -265 -8 -87 10 -119 105 -187 91
-66 198 -175 234 -238 14 -25 34 -70 44 -100 l18 -55 6 40 c3 22 23 70 43 106
61 108 50 165 -49 271 -30 31 -54 62 -54 68 0 6 -29 40 -64 75 -111 113 -152
226 -116 319 6 16 9 31 7 33 -2 2 -30 -28 -62 -67z m25 -105 c16 -53 57 -123
92 -158 15 -16 29 -38 29 -50 1 -17 2 -18 6 -5 4 16 6 16 28 2 13 -9 29 -31
35 -49 6 -18 32 -55 57 -82 57 -61 87 -123 78 -165 -8 -32 -55 -117 -67 -118
-4 0 -15 16 -24 36 -9 19 -43 64 -75 100 -33 35 -59 73 -59 83 0 14 -5 18 -20
14 -11 -3 -20 -1 -20 5 0 6 -9 13 -20 17 -34 11 -119 84 -136 117 -28 55 -9
179 42 265 29 49 36 48 54 -12z"/>
<path d="M1086 2033 c3 -24 2 -43 -3 -43 -20 0 -53 33 -53 52 0 12 -3 19 -6
15 -16 -15 11 -60 57 -97 55 -43 72 -46 46 -7 -9 13 -23 46 -31 73 l-16 49 6
-42z"/>
<path d="M1885 2445 c33 -96 29 -141 -20 -230 -19 -33 -52 -78 -74 -99 -22
-22 -37 -44 -34 -49 3 -5 14 1 24 14 13 17 19 19 19 9 0 -8 8 0 16 18 19 38
27 40 42 10 11 -22 11 -22 6 4 -4 18 2 40 19 70 14 24 30 61 37 83 21 73 19
69 39 51 27 -24 59 -108 71 -186 8 -57 7 -69 -10 -106 -17 -34 -61 -75 -117
-108 -31 -18 -9 6 31 33 42 29 78 92 62 108 -3 4 -6 -1 -6 -9 0 -18 -37 -68
-51 -68 -5 0 -9 15 -10 33 l0 32 -15 -40 c-33 -93 -83 -165 -113 -165 -6 0
-11 -6 -11 -13 0 -7 -14 -26 -31 -43 -18 -16 -47 -53 -66 -81 -18 -29 -35 -53
-37 -53 -2 0 -18 23 -36 50 -54 84 -37 156 54 238 20 18 43 49 51 69 19 44 12
56 -8 16 -9 -15 -39 -50 -67 -78 -101 -98 -112 -164 -47 -271 20 -33 39 -77
43 -98 l7 -39 17 54 c9 30 24 69 34 87 28 53 164 190 249 249 42 30 84 64 92
76 30 43 12 195 -35 292 -22 44 -136 172 -125 140z"/>
<path d="M1484 2367 c3 -10 9 -37 13 -60 7 -44 14 -36 27 33 6 26 5 31 -4 20
-9 -13 -13 -12 -27 5 -14 18 -15 18 -9 2z"/>
<path d="M1712 2250 c-4 -117 -44 -223 -88 -234 -12 -3 -24 -16 -27 -28 -7
-26 -75 -108 -90 -108 -6 0 -19 8 -30 18 -20 17 -20 17 -5 -8 9 -14 19 -41 23
-60 l8 -35 12 42 c9 30 36 67 88 123 97 103 119 157 114 274 -3 78 -3 79 -5
16z"/>
<path d="M1470 2247 c0 -21 -7 -52 -16 -69 -9 -16 -11 -27 -6 -24 6 3 18 26
27 50 13 33 14 49 6 63 -9 15 -10 12 -11 -20z"/>
<path d="M1532 2245 c-1 -22 6 -51 14 -65 10 -16 13 -18 8 -5 -4 11 -10 40
-14 65 l-7 45 -1 -40z"/>
<path d="M864 2196 c-10 -26 4 -48 28 -44 17 2 23 10 23 28 0 18 -6 26 -23 28
-13 2 -25 -3 -28 -12z"/>
<path d="M2094 2195 c-8 -21 2 -45 19 -45 21 0 38 25 31 44 -8 20 -43 21 -50
1z"/>
<path d="M876 2111 c-9 -15 23 -36 36 -23 5 5 7 15 4 21 -9 13 -33 14 -40 2z"/>
<path d="M1488 2095 c-26 -50 -30 -90 -15 -128 21 -48 34 -53 52 -18 20 39 19
87 -4 136 l-18 40 -15 -30z"/>
<path d="M2102 2103 c2 -10 10 -18 18 -18 8 0 16 8 18 18 2 12 -3 17 -18 17
-15 0 -20 -5 -18 -17z"/>
<path d="M796 2027 c-10 -64 6 -113 57 -175 63 -76 147 -135 261 -184 63 -26
112 -54 134 -77 20 -20 33 -29 30 -21 -3 8 -21 51 -39 95 -61 152 -119 210
-301 301 -75 37 -111 62 -121 81 l-14 26 -7 -46z m152 -97 c81 -39 117 -63
162 -109 56 -57 90 -109 90 -138 0 -18 -7 -17 -77 12 -119 48 -193 101 -247
174 -35 47 -58 111 -40 111 5 0 56 -23 112 -50z"/>
<path d="M2189 2042 c-11 -18 -50 -44 -125 -81 -89 -44 -122 -67 -180 -125
-70 -70 -79 -87 -152 -265 -3 -8 12 3 34 25 22 22 62 48 89 58 163 61 303 166
346 259 19 42 24 107 11 139 -6 15 -9 13 -23 -10z m-22 -128 c-42 -82 -133
-156 -264 -213 -89 -39 -97 -39 -88 -4 19 78 117 168 250 232 129 62 140 61
102 -15z"/>
<path d="M627 1928 c40 -43 59 -81 99 -204 18 -56 44 -120 57 -141 53 -83 140
-138 275 -172 44 -12 88 -24 98 -28 11 -4 3 14 -24 53 -22 32 -65 98 -95 145
-99 152 -237 283 -369 350 -73 37 -79 36 -41 -3z m139 -100 c33 -24 92 -78
174 -159 56 -55 88 -114 76 -144 -9 -26 -24 -17 -102 62 -82 81 -78 53 4 -33
50 -52 79 -66 104 -50 14 8 21 6 32 -9 8 -11 17 -28 20 -38 3 -14 1 -17 -12
-12 -9 4 -32 9 -49 12 -18 3 -33 9 -33 13 0 4 -6 7 -13 7 -22 0 -93 51 -129
93 -26 29 -47 75 -76 161 -22 65 -37 119 -33 119 5 0 21 -10 37 -22z"/>
<path d="M2312 1912 c-143 -85 -244 -185 -360 -362 -41 -63 -87 -128 -101
-144 -20 -23 -22 -28 -8 -23 10 4 54 16 97 27 206 53 282 121 341 307 37 116
62 168 97 206 36 38 11 34 -66 -11z m-32 -79 c0 -8 -19 -68 -31 -98 -4 -11
-15 -44 -24 -73 -20 -62 -100 -150 -156 -171 -19 -7 -48 -20 -66 -27 -57 -25
-75 -16 -53 27 9 16 18 18 48 13 35 -5 41 -2 81 39 24 25 53 60 64 78 15 25 1
15 -55 -38 -42 -40 -81 -73 -88 -73 -22 0 -3 70 32 122 18 27 57 65 86 85 28
20 52 40 52 45 0 9 90 77 103 78 4 0 7 -3 7 -7z"/>
<path d="M607 1756 c-3 -8 1 -20 9 -27 12 -10 18 -9 31 3 8 9 12 21 9 27 -10
16 -43 14 -49 -3z"/>
<path d="M1491 1748 c-5 -15 -31 -58 -57 -97 -75 -113 -72 -161 15 -266 23
-27 41 -58 41 -67 0 -26 17 -22 24 5 3 13 28 52 57 87 50 63 51 65 47 121 -3
46 -11 66 -42 109 -21 30 -47 72 -57 94 l-18 40 -10 -26z m67 -122 c50 -79 49
-125 -2 -201 -20 -30 -43 -55 -51 -55 -22 0 -55 39 -83 99 -21 47 -23 58 -13
90 15 49 78 133 97 129 9 -2 32 -30 52 -62z"/>
<path d="M1467 1612 l-28 -57 28 33 c15 18 31 32 35 32 4 0 19 -12 34 -27 l27
-28 -22 35 c-12 19 -25 43 -28 53 -8 27 -16 20 -46 -41z"/>
<path d="M1486 1518 c-22 -51 -21 -101 3 -122 18 -16 20 -16 35 6 21 29 20 64
-3 113 l-19 40 -16 -37z"/>
<path d="M2354 1759 c-3 -6 0 -18 9 -26 18 -18 37 -9 37 18 0 21 -34 27 -46 8z"/>
<path d="M646 1653 c-14 -14 -5 -63 17 -87 12 -13 37 -28 56 -31 33 -7 34 -7
27 21 -11 42 -84 113 -100 97z"/>
<path d="M2313 1625 c-36 -31 -62 -79 -49 -92 10 -10 86 19 96 37 12 23 13 77
1 84 -4 3 -26 -10 -48 -29z"/>
<path d="M1060 1618 c1 -22 39 -85 40 -65 0 27 36 21 104 -17 69 -39 110 -78
125 -119 15 -38 13 -70 -1 -37 -9 20 -12 21 -15 8 -4 -15 -9 -14 -52 8 -26 14
-63 39 -81 55 -18 16 -37 28 -43 26 -17 -5 56 -72 118 -107 32 -18 73 -47 92
-63 34 -30 34 -30 29 -6 -3 13 -10 51 -16 84 -15 88 -45 119 -180 188 -63 31
-116 57 -117 57 -2 0 -3 -6 -3 -12z"/>
<path d="M1910 1615 c-14 -8 -60 -30 -102 -51 -101 -47 -154 -103 -163 -170
-4 -27 -11 -64 -15 -82 l-8 -32 41 34 c23 18 61 43 85 55 75 38 168 138 147
159 -3 3 -8 -4 -11 -16 -6 -22 -84 -86 -140 -115 -32 -16 -74 -19 -74 -4 0 21
42 87 67 105 81 57 182 91 169 57 -3 -8 -2 -15 3 -15 7 0 41 70 41 85 0 8 -13
4 -40 -10z"/>
<path d="M519 1545 c28 -98 72 -138 169 -151 68 -9 68 8 1 30 -28 10 -64 27
-80 38 -30 23 -40 55 -14 44 8 -3 38 -8 67 -12 87 -11 145 -53 115 -83 -9 -10
-9 -12 2 -9 7 2 16 -3 18 -11 4 -10 -1 -11 -18 -6 -19 5 -17 2 8 -14 32 -20
103 -115 103 -137 0 -16 -15 -21 -86 -29 -32 -4 -66 -11 -74 -15 -28 -15 -109
39 -136 92 -21 40 -18 45 29 56 23 6 51 18 62 26 18 14 14 15 -50 10 -64 -6
-73 -4 -108 20 -38 26 -38 26 -31 4 11 -36 72 -151 92 -175 36 -41 93 -73 132
-73 20 0 63 9 96 21 40 13 78 19 115 17 l57 -3 -32 35 c-45 50 -86 113 -131
198 -44 84 -60 97 -130 107 -85 11 -124 25 -160 56 l-34 30 18 -66z"/>
<path d="M2478 1585 c-20 -26 -87 -51 -166 -61 -29 -4 -63 -15 -76 -25 -13
-10 -43 -57 -67 -105 -25 -49 -68 -113 -100 -148 l-56 -61 52 3 c33 2 78 -4
122 -17 39 -12 86 -21 105 -21 69 0 143 78 203 213 l26 59 -33 -24 c-28 -19
-44 -23 -107 -22 -67 1 -73 0 -56 -12 11 -8 37 -17 58 -21 21 -3 41 -12 44
-19 7 -18 -51 -96 -88 -118 -27 -16 -38 -17 -118 -6 -49 7 -95 16 -102 20 -9
6 -4 21 19 58 18 27 41 57 52 67 11 10 20 26 20 35 0 9 3 20 7 24 4 4 8 14 8
23 0 27 50 54 125 69 41 7 76 11 79 9 10 -11 -45 -56 -95 -76 -83 -35 -69 -51
22 -28 64 16 108 62 129 132 19 67 17 84 -7 52z"/>
<path d="M860 1453 c0 -3 20 -47 44 -97 81 -170 166 -233 349 -260 58 -9 112
-23 133 -35 19 -11 34 -19 34 -18 0 2 -9 20 -20 42 -11 22 -20 51 -20 65 -1
69 -81 165 -157 188 -21 6 -87 23 -147 37 -61 14 -134 38 -163 54 -29 16 -53
27 -53 24z m220 -102 c181 -51 227 -83 265 -190 14 -42 8 -53 -15 -26 -9 11
-16 13 -24 5 -13 -13 -63 -13 -145 1 -73 13 -84 19 -148 80 -38 36 -93 131
-93 160 0 13 9 12 160 -30z"/>
<path d="M2121 1443 c-37 -25 -111 -51 -230 -77 -120 -28 -161 -44 -204 -85
-37 -33 -53 -65 -62 -121 -4 -25 -16 -62 -26 -82 l-19 -37 35 20 c22 13 73 26
136 35 184 26 271 90 354 261 26 52 45 97 43 99 -2 2 -15 -4 -27 -13z m-52
-114 c-13 -33 -35 -71 -49 -84 -64 -61 -99 -84 -149 -99 -64 -19 -171 -22
-171 -4 0 6 -9 3 -20 -7 -11 -10 -23 -16 -26 -12 -13 12 28 105 59 134 44 42
79 58 188 87 52 14 114 32 139 39 25 8 47 12 49 10 2 -1 -7 -30 -20 -64z"/>
<path d="M1387 1369 c6 -52 31 -107 77 -171 l34 -47 42 52 c50 61 65 93 75
162 l7 50 -36 -50 c-20 -27 -43 -60 -52 -72 -9 -12 -18 -40 -21 -63 -7 -49
-23 -53 -23 -6 0 23 -11 50 -35 82 -19 27 -44 62 -54 78 l-19 29 5 -44z"/>
<path d="M1394 1215 c4 -11 16 -53 26 -94 11 -41 26 -81 34 -90 18 -18 21 -5
6 33 -10 27 -2 39 19 27 9 -6 10 -17 3 -43 -7 -26 -6 -41 5 -62 l15 -28 15 28
c8 16 22 37 30 47 13 14 66 187 58 187 -1 0 -24 -26 -50 -57 -26 -32 -51 -58
-55 -58 -4 0 -32 29 -61 65 -29 36 -49 56 -45 45z m156 -132 c-1 -5 -7 -19
-15 -33 -10 -18 -14 -20 -15 -8 0 9 -3 23 -6 32 -4 12 0 16 15 16 12 0 21 -3
21 -7z"/>
<path d="M840 1151 c-36 -10 -93 -26 -127 -36 -56 -16 -65 -17 -107 -3 -25 8
-46 13 -46 11 0 -13 64 -94 99 -126 61 -55 117 -79 194 -85 67 -5 157 17 157
39 0 12 -22 11 -89 -2 -47 -10 -65 -9 -113 5 -59 17 -163 90 -153 106 4 6 24
13 46 16 22 4 42 11 45 15 3 5 15 9 28 9 12 0 27 5 34 12 7 7 45 12 94 12 68
1 92 -4 133 -23 79 -38 80 -40 43 -72 l-33 -28 52 27 51 27 49 -18 c26 -9 60
-17 75 -17 15 0 30 -4 33 -10 3 -5 19 -10 35 -10 30 0 99 -49 70 -50 -10 0 -7
-5 8 -16 13 -9 19 -20 15 -27 -4 -7 -6 -23 -5 -37 4 -31 -65 -140 -88 -140 -8
0 -40 24 -70 53 -55 52 -56 53 -75 34 -61 -60 -183 -85 -260 -53 -32 14 -48
36 -26 36 20 0 101 90 101 112 0 20 -5 17 -47 -24 -58 -55 -81 -68 -141 -77
l-45 -6 95 -49 c90 -46 98 -48 159 -44 66 4 133 31 176 70 l22 21 10 -26 c5
-13 30 -42 55 -63 25 -21 49 -47 52 -58 5 -16 8 -14 18 15 7 19 29 55 49 82
83 108 74 234 -21 274 -20 9 -75 21 -122 28 -62 10 -111 26 -180 59 -115 55
-163 62 -250 37z"/>
<path d="M2040 1163 c-14 -2 -72 -26 -130 -52 -79 -36 -122 -50 -174 -55 -84
-8 -159 -39 -183 -75 -23 -35 -23 -125 1 -171 10 -19 34 -54 52 -77 23 -28 34
-52 35 -75 0 -27 2 -30 9 -13 4 11 33 43 64 72 31 29 56 59 56 67 0 10 14 5
50 -19 67 -45 111 -58 184 -53 52 3 74 11 141 51 75 45 78 47 45 47 -49 0
-115 35 -151 81 -17 21 -35 39 -40 39 -28 0 15 -72 67 -110 18 -14 34 -30 34
-37 0 -18 -88 -41 -135 -37 -54 6 -169 64 -173 88 -3 15 0 17 14 12 17 -7 17
-5 -1 12 -20 19 -20 18 -23 -14 -2 -22 -10 -35 -22 -39 -11 -3 -30 -20 -44
-36 -14 -17 -34 -32 -45 -34 -54 -10 -130 177 -84 204 13 7 14 10 4 11 -11 0
-10 4 3 19 17 18 45 28 166 58 98 24 104 25 144 4 l39 -20 -23 24 c-13 14 -22
27 -19 29 2 2 29 16 59 32 47 24 66 28 135 27 57 0 93 -6 125 -20 25 -11 65
-24 88 -28 23 -4 42 -11 42 -17 0 -19 -65 -71 -119 -96 -55 -25 -74 -26 -193
-6 -51 9 -49 -9 2 -30 87 -35 203 -14 288 51 33 25 126 142 119 150 -2 2 -21
-4 -42 -13 -44 -18 -84 -13 -187 22 -73 25 -138 35 -178 27z"/>
<path d="M1498 844 c-3 -5 -8 -21 -11 -35 -4 -15 -22 -49 -41 -76 -57 -83 -78
-132 -72 -167 3 -17 25 -63 48 -101 41 -68 42 -73 43 -160 1 -62 7 -105 20
-138 l18 -49 19 49 c12 33 18 75 18 134 0 82 1 88 41 154 67 111 64 154 -18
268 -20 26 -41 66 -48 89 -6 23 -14 37 -17 32z m66 -169 c28 -51 32 -88 16
-131 -12 -29 -68 -104 -78 -104 -4 0 -24 25 -46 56 -35 51 -38 60 -34 109 3
41 14 68 42 110 l37 56 19 -24 c10 -13 30 -45 44 -72z"/>
<path d="M1492 635 c-17 -56 -15 -71 8 -71 22 0 23 9 11 71 l-7 40 -12 -40z"/>
</g>
</svg>
